<mxfile host="Electron" modified="2024-06-24T13:13:12.338Z" agent="Mozilla/5.0 (Windows NT 10.0; Win64; x64) AppleWebKit/537.36 (KHTML, like Gecko) draw.io/24.6.1 Chrome/124.0.6367.207 Electron/30.0.6 Safari/537.36" etag="5KNx4EqI6mWC9rO_p82k" version="24.6.1" type="device">
  <diagram name="Page-1" id="VIEfEIOPnBXEZI4hvstC">
    <mxGraphModel dx="779" dy="510" grid="1" gridSize="10" guides="1" tooltips="1" connect="1" arrows="1" fold="1" page="1" pageScale="1" pageWidth="850" pageHeight="1100" math="0" shadow="0">
      <root>
        <mxCell id="0" />
        <mxCell id="1" parent="0" />
        <mxCell id="TQEilbY2hY_B8D0ruo_E-2" value="horizontal&amp;nbsp;&lt;div&gt;&lt;br&gt;&lt;/div&gt;" style="rounded=0;whiteSpace=wrap;html=1;sketch=1;hachureGap=4;jiggle=2;curveFitting=1;fontFamily=Architects Daughter;fontSource=https%3A%2F%2Ffonts.googleapis.com%2Fcss%3Ffamily%3DArchitects%2BDaughter;labelBackgroundColor=none;fillColor=none;strokeColor=#0000FF;" vertex="1" parent="1">
          <mxGeometry x="50" y="120" width="120" height="60" as="geometry" />
        </mxCell>
        <mxCell id="TQEilbY2hY_B8D0ruo_E-3" value="vertical" style="rounded=0;whiteSpace=wrap;html=1;sketch=1;hachureGap=4;jiggle=2;curveFitting=1;fontFamily=Architects Daughter;fontSource=https%3A%2F%2Ffonts.googleapis.com%2Fcss%3Ffamily%3DArchitects%2BDaughter;fillColor=none;strokeColor=#d79b00;" vertex="1" parent="1">
          <mxGeometry x="190" y="120" width="120" height="60" as="geometry" />
        </mxCell>
        <mxCell id="TQEilbY2hY_B8D0ruo_E-4" value="object&amp;nbsp;" style="rounded=0;whiteSpace=wrap;html=1;sketch=1;hachureGap=4;jiggle=2;curveFitting=1;fontFamily=Architects Daughter;fontSource=https%3A%2F%2Ffonts.googleapis.com%2Fcss%3Ffamily%3DArchitects%2BDaughter;gradientColor=none;fillColor=none;strokeColor=#858585;" vertex="1" parent="1">
          <mxGeometry x="365" y="120" width="120" height="60" as="geometry" />
        </mxCell>
        <mxCell id="TQEilbY2hY_B8D0ruo_E-5" value="&lt;div&gt;&lt;br&gt;&lt;/div&gt;" style="rounded=0;whiteSpace=wrap;html=1;sketch=1;hachureGap=4;jiggle=2;curveFitting=1;fontFamily=Architects Daughter;fontSource=https%3A%2F%2Ffonts.googleapis.com%2Fcss%3Ffamily%3DArchitects%2BDaughter;labelBackgroundColor=none;fillColor=none;strokeColor=#0000FF;" vertex="1" parent="1">
          <mxGeometry x="50" y="210" width="710" height="390" as="geometry" />
        </mxCell>
        <mxCell id="TQEilbY2hY_B8D0ruo_E-7" value="whole" style="text;html=1;align=center;verticalAlign=middle;whiteSpace=wrap;rounded=0;fontFamily=Architects Daughter;fontSource=https%3A%2F%2Ffonts.googleapis.com%2Fcss%3Ffamily%3DArchitects%2BDaughter;" vertex="1" parent="1">
          <mxGeometry x="50" y="180" width="60" height="30" as="geometry" />
        </mxCell>
        <mxCell id="TQEilbY2hY_B8D0ruo_E-10" value="" style="rounded=0;whiteSpace=wrap;html=1;sketch=1;hachureGap=4;jiggle=2;curveFitting=1;fontFamily=Architects Daughter;fontSource=https%3A%2F%2Ffonts.googleapis.com%2Fcss%3Ffamily%3DArchitects%2BDaughter;fillColor=none;strokeColor=#d79b00;" vertex="1" parent="1">
          <mxGeometry x="60" y="220" width="60" height="370" as="geometry" />
        </mxCell>
        <mxCell id="TQEilbY2hY_B8D0ruo_E-11" value="Navi&lt;div&gt;&lt;br&gt;&lt;/div&gt;" style="text;html=1;align=center;verticalAlign=middle;whiteSpace=wrap;rounded=0;fontFamily=Architects Daughter;fontSource=https%3A%2F%2Ffonts.googleapis.com%2Fcss%3Ffamily%3DArchitects%2BDaughter;" vertex="1" parent="1">
          <mxGeometry x="60" y="210" width="60" height="30" as="geometry" />
        </mxCell>
        <mxCell id="TQEilbY2hY_B8D0ruo_E-12" value="logo" style="rounded=0;whiteSpace=wrap;html=1;sketch=1;hachureGap=4;jiggle=2;curveFitting=1;fontFamily=Architects Daughter;fontSource=https%3A%2F%2Ffonts.googleapis.com%2Fcss%3Ffamily%3DArchitects%2BDaughter;gradientColor=none;fillColor=none;strokeColor=#858585;" vertex="1" parent="1">
          <mxGeometry x="67.5" y="230" width="45" height="40" as="geometry" />
        </mxCell>
        <mxCell id="TQEilbY2hY_B8D0ruo_E-14" value="icon&lt;div&gt;&lt;br&gt;&lt;/div&gt;" style="rounded=0;whiteSpace=wrap;html=1;sketch=1;hachureGap=4;jiggle=2;curveFitting=1;fontFamily=Architects Daughter;fontSource=https%3A%2F%2Ffonts.googleapis.com%2Fcss%3Ffamily%3DArchitects%2BDaughter;gradientColor=none;fillColor=none;strokeColor=#858585;" vertex="1" parent="1">
          <mxGeometry x="67.5" y="300" width="45" height="30" as="geometry" />
        </mxCell>
        <mxCell id="TQEilbY2hY_B8D0ruo_E-16" value="icon&lt;div&gt;&lt;br&gt;&lt;/div&gt;" style="rounded=0;whiteSpace=wrap;html=1;sketch=1;hachureGap=4;jiggle=2;curveFitting=1;fontFamily=Architects Daughter;fontSource=https%3A%2F%2Ffonts.googleapis.com%2Fcss%3Ffamily%3DArchitects%2BDaughter;gradientColor=none;fillColor=none;strokeColor=#858585;" vertex="1" parent="1">
          <mxGeometry x="67.5" y="340" width="45" height="30" as="geometry" />
        </mxCell>
        <mxCell id="TQEilbY2hY_B8D0ruo_E-17" value="icon&lt;div&gt;&lt;br&gt;&lt;/div&gt;" style="rounded=0;whiteSpace=wrap;html=1;sketch=1;hachureGap=4;jiggle=2;curveFitting=1;fontFamily=Architects Daughter;fontSource=https%3A%2F%2Ffonts.googleapis.com%2Fcss%3Ffamily%3DArchitects%2BDaughter;gradientColor=none;fillColor=none;strokeColor=#858585;" vertex="1" parent="1">
          <mxGeometry x="67.5" y="410" width="45" height="30" as="geometry" />
        </mxCell>
        <mxCell id="TQEilbY2hY_B8D0ruo_E-18" value="icon&lt;div&gt;&lt;br&gt;&lt;/div&gt;" style="rounded=0;whiteSpace=wrap;html=1;sketch=1;hachureGap=4;jiggle=2;curveFitting=1;fontFamily=Architects Daughter;fontSource=https%3A%2F%2Ffonts.googleapis.com%2Fcss%3Ffamily%3DArchitects%2BDaughter;gradientColor=none;fillColor=none;strokeColor=#858585;" vertex="1" parent="1">
          <mxGeometry x="67.5" y="550" width="45" height="30" as="geometry" />
        </mxCell>
        <mxCell id="TQEilbY2hY_B8D0ruo_E-19" value="icon&lt;div&gt;&lt;br&gt;&lt;/div&gt;" style="rounded=0;whiteSpace=wrap;html=1;sketch=1;hachureGap=4;jiggle=2;curveFitting=1;fontFamily=Architects Daughter;fontSource=https%3A%2F%2Ffonts.googleapis.com%2Fcss%3Ffamily%3DArchitects%2BDaughter;gradientColor=none;fillColor=none;strokeColor=#858585;" vertex="1" parent="1">
          <mxGeometry x="67.5" y="450" width="45" height="30" as="geometry" />
        </mxCell>
        <mxCell id="TQEilbY2hY_B8D0ruo_E-20" value="icon&lt;div&gt;&lt;br&gt;&lt;/div&gt;" style="rounded=0;whiteSpace=wrap;html=1;sketch=1;hachureGap=4;jiggle=2;curveFitting=1;fontFamily=Architects Daughter;fontSource=https%3A%2F%2Ffonts.googleapis.com%2Fcss%3Ffamily%3DArchitects%2BDaughter;gradientColor=none;fillColor=none;strokeColor=#858585;" vertex="1" parent="1">
          <mxGeometry x="67.5" y="510" width="45" height="30" as="geometry" />
        </mxCell>
        <mxCell id="TQEilbY2hY_B8D0ruo_E-22" value="" style="rounded=0;whiteSpace=wrap;html=1;sketch=1;hachureGap=4;jiggle=2;curveFitting=1;fontFamily=Architects Daughter;fontSource=https%3A%2F%2Ffonts.googleapis.com%2Fcss%3Ffamily%3DArchitects%2BDaughter;fillColor=none;strokeColor=#d79b00;" vertex="1" parent="1">
          <mxGeometry x="140" y="220" width="600" height="370" as="geometry" />
        </mxCell>
        <mxCell id="TQEilbY2hY_B8D0ruo_E-23" value="header, charts&lt;div&gt;&lt;br&gt;&lt;/div&gt;" style="text;html=1;align=center;verticalAlign=middle;whiteSpace=wrap;rounded=0;fontFamily=Architects Daughter;fontSource=https%3A%2F%2Ffonts.googleapis.com%2Fcss%3Ffamily%3DArchitects%2BDaughter;" vertex="1" parent="1">
          <mxGeometry x="140" y="190" width="60" height="30" as="geometry" />
        </mxCell>
        <mxCell id="TQEilbY2hY_B8D0ruo_E-24" value="&lt;div&gt;&lt;br&gt;&lt;/div&gt;" style="rounded=0;whiteSpace=wrap;html=1;sketch=1;hachureGap=4;jiggle=2;curveFitting=1;fontFamily=Architects Daughter;fontSource=https%3A%2F%2Ffonts.googleapis.com%2Fcss%3Ffamily%3DArchitects%2BDaughter;labelBackgroundColor=none;fillColor=none;strokeColor=#0000FF;" vertex="1" parent="1">
          <mxGeometry x="150" y="230" width="580" height="40" as="geometry" />
        </mxCell>
        <mxCell id="TQEilbY2hY_B8D0ruo_E-25" value="title&lt;div&gt;&lt;br&gt;&lt;/div&gt;" style="text;html=1;align=center;verticalAlign=middle;whiteSpace=wrap;rounded=0;fontFamily=Architects Daughter;fontSource=https%3A%2F%2Ffonts.googleapis.com%2Fcss%3Ffamily%3DArchitects%2BDaughter;" vertex="1" parent="1">
          <mxGeometry x="160" y="240" width="60" height="30" as="geometry" />
        </mxCell>
        <mxCell id="TQEilbY2hY_B8D0ruo_E-26" value="&lt;div&gt;&lt;br&gt;&lt;/div&gt;" style="rounded=0;whiteSpace=wrap;html=1;sketch=1;hachureGap=4;jiggle=2;curveFitting=1;fontFamily=Architects Daughter;fontSource=https%3A%2F%2Ffonts.googleapis.com%2Fcss%3Ffamily%3DArchitects%2BDaughter;labelBackgroundColor=none;fillColor=none;strokeColor=#0000FF;" vertex="1" parent="1">
          <mxGeometry x="150" y="280" width="580" height="300" as="geometry" />
        </mxCell>
        <mxCell id="TQEilbY2hY_B8D0ruo_E-27" value="" style="rounded=0;whiteSpace=wrap;html=1;sketch=1;hachureGap=4;jiggle=2;curveFitting=1;fontFamily=Architects Daughter;fontSource=https%3A%2F%2Ffonts.googleapis.com%2Fcss%3Ffamily%3DArchitects%2BDaughter;fillColor=none;strokeColor=#d79b00;" vertex="1" parent="1">
          <mxGeometry x="170" y="285" width="180" height="285" as="geometry" />
        </mxCell>
        <mxCell id="TQEilbY2hY_B8D0ruo_E-28" value="overview&lt;div&gt;&lt;br&gt;&lt;/div&gt;" style="text;html=1;align=center;verticalAlign=middle;whiteSpace=wrap;rounded=0;fontFamily=Architects Daughter;fontSource=https%3A%2F%2Ffonts.googleapis.com%2Fcss%3Ffamily%3DArchitects%2BDaughter;" vertex="1" parent="1">
          <mxGeometry x="210" y="290" width="60" height="30" as="geometry" />
        </mxCell>
        <mxCell id="TQEilbY2hY_B8D0ruo_E-29" value="chart" style="rounded=0;whiteSpace=wrap;html=1;sketch=1;hachureGap=4;jiggle=2;curveFitting=1;fontFamily=Architects Daughter;fontSource=https%3A%2F%2Ffonts.googleapis.com%2Fcss%3Ffamily%3DArchitects%2BDaughter;gradientColor=none;fillColor=none;strokeColor=#858585;" vertex="1" parent="1">
          <mxGeometry x="170" y="320" width="170" height="40" as="geometry" />
        </mxCell>
        <mxCell id="TQEilbY2hY_B8D0ruo_E-30" value="chart" style="rounded=0;whiteSpace=wrap;html=1;sketch=1;hachureGap=4;jiggle=2;curveFitting=1;fontFamily=Architects Daughter;fontSource=https%3A%2F%2Ffonts.googleapis.com%2Fcss%3Ffamily%3DArchitects%2BDaughter;gradientColor=none;fillColor=none;strokeColor=#858585;" vertex="1" parent="1">
          <mxGeometry x="175" y="360" width="170" height="60" as="geometry" />
        </mxCell>
        <mxCell id="TQEilbY2hY_B8D0ruo_E-31" value="chart" style="rounded=0;whiteSpace=wrap;html=1;sketch=1;hachureGap=4;jiggle=2;curveFitting=1;fontFamily=Architects Daughter;fontSource=https%3A%2F%2Ffonts.googleapis.com%2Fcss%3Ffamily%3DArchitects%2BDaughter;gradientColor=none;fillColor=none;strokeColor=#858585;" vertex="1" parent="1">
          <mxGeometry x="175" y="420" width="170" height="70" as="geometry" />
        </mxCell>
        <mxCell id="TQEilbY2hY_B8D0ruo_E-34" value="chart" style="rounded=0;whiteSpace=wrap;html=1;sketch=1;hachureGap=4;jiggle=2;curveFitting=1;fontFamily=Architects Daughter;fontSource=https%3A%2F%2Ffonts.googleapis.com%2Fcss%3Ffamily%3DArchitects%2BDaughter;gradientColor=none;fillColor=none;strokeColor=#858585;" vertex="1" parent="1">
          <mxGeometry x="175" y="490" width="170" height="70" as="geometry" />
        </mxCell>
        <mxCell id="TQEilbY2hY_B8D0ruo_E-35" value="" style="rounded=0;whiteSpace=wrap;html=1;sketch=1;hachureGap=4;jiggle=2;curveFitting=1;fontFamily=Architects Daughter;fontSource=https%3A%2F%2Ffonts.googleapis.com%2Fcss%3Ffamily%3DArchitects%2BDaughter;fillColor=none;strokeColor=#d79b00;" vertex="1" parent="1">
          <mxGeometry x="360" y="285" width="360" height="285" as="geometry" />
        </mxCell>
        <mxCell id="TQEilbY2hY_B8D0ruo_E-36" value="&lt;div&gt;&lt;br&gt;&lt;/div&gt;" style="rounded=0;whiteSpace=wrap;html=1;sketch=1;hachureGap=4;jiggle=2;curveFitting=1;fontFamily=Architects Daughter;fontSource=https%3A%2F%2Ffonts.googleapis.com%2Fcss%3Ffamily%3DArchitects%2BDaughter;labelBackgroundColor=none;fillColor=none;strokeColor=#0000FF;" vertex="1" parent="1">
          <mxGeometry x="370" y="290" width="340" height="150" as="geometry" />
        </mxCell>
        <mxCell id="TQEilbY2hY_B8D0ruo_E-37" value="&lt;div&gt;&lt;br&gt;&lt;/div&gt;" style="rounded=0;whiteSpace=wrap;html=1;sketch=1;hachureGap=4;jiggle=2;curveFitting=1;fontFamily=Architects Daughter;fontSource=https%3A%2F%2Ffonts.googleapis.com%2Fcss%3Ffamily%3DArchitects%2BDaughter;labelBackgroundColor=none;fillColor=none;strokeColor=#0000FF;" vertex="1" parent="1">
          <mxGeometry x="370" y="420" width="340" height="140" as="geometry" />
        </mxCell>
        <mxCell id="TQEilbY2hY_B8D0ruo_E-38" value="demographics" style="text;html=1;align=center;verticalAlign=middle;whiteSpace=wrap;rounded=0;fontFamily=Architects Daughter;fontSource=https%3A%2F%2Ffonts.googleapis.com%2Fcss%3Ffamily%3DArchitects%2BDaughter;" vertex="1" parent="1">
          <mxGeometry x="380" y="290" width="60" height="30" as="geometry" />
        </mxCell>
        <mxCell id="TQEilbY2hY_B8D0ruo_E-39" value="income" style="text;html=1;align=center;verticalAlign=middle;whiteSpace=wrap;rounded=0;fontFamily=Architects Daughter;fontSource=https%3A%2F%2Ffonts.googleapis.com%2Fcss%3Ffamily%3DArchitects%2BDaughter;" vertex="1" parent="1">
          <mxGeometry x="370" y="440" width="60" height="30" as="geometry" />
        </mxCell>
        <mxCell id="TQEilbY2hY_B8D0ruo_E-40" value="&lt;div&gt;&lt;br&gt;&lt;/div&gt;" style="rounded=0;whiteSpace=wrap;html=1;sketch=1;hachureGap=4;jiggle=2;curveFitting=1;fontFamily=Architects Daughter;fontSource=https%3A%2F%2Ffonts.googleapis.com%2Fcss%3Ffamily%3DArchitects%2BDaughter;labelBackgroundColor=none;fillColor=none;strokeColor=#0000FF;" vertex="1" parent="1">
          <mxGeometry x="390" y="320" width="300" height="80" as="geometry" />
        </mxCell>
        <mxCell id="TQEilbY2hY_B8D0ruo_E-41" value="chart" style="rounded=0;whiteSpace=wrap;html=1;sketch=1;hachureGap=4;jiggle=2;curveFitting=1;fontFamily=Architects Daughter;fontSource=https%3A%2F%2Ffonts.googleapis.com%2Fcss%3Ffamily%3DArchitects%2BDaughter;gradientColor=none;fillColor=none;strokeColor=#858585;" vertex="1" parent="1">
          <mxGeometry x="390" y="325" width="90" height="75" as="geometry" />
        </mxCell>
        <mxCell id="TQEilbY2hY_B8D0ruo_E-42" value="chart" style="rounded=0;whiteSpace=wrap;html=1;sketch=1;hachureGap=4;jiggle=2;curveFitting=1;fontFamily=Architects Daughter;fontSource=https%3A%2F%2Ffonts.googleapis.com%2Fcss%3Ffamily%3DArchitects%2BDaughter;gradientColor=none;fillColor=none;strokeColor=#858585;" vertex="1" parent="1">
          <mxGeometry x="485" y="322.5" width="90" height="75" as="geometry" />
        </mxCell>
        <mxCell id="TQEilbY2hY_B8D0ruo_E-43" value="chart" style="rounded=0;whiteSpace=wrap;html=1;sketch=1;hachureGap=4;jiggle=2;curveFitting=1;fontFamily=Architects Daughter;fontSource=https%3A%2F%2Ffonts.googleapis.com%2Fcss%3Ffamily%3DArchitects%2BDaughter;gradientColor=none;fillColor=none;strokeColor=#858585;" vertex="1" parent="1">
          <mxGeometry x="580" y="322.5" width="90" height="75" as="geometry" />
        </mxCell>
        <mxCell id="TQEilbY2hY_B8D0ruo_E-44" value="&lt;div&gt;&lt;br&gt;&lt;/div&gt;" style="rounded=0;whiteSpace=wrap;html=1;sketch=1;hachureGap=4;jiggle=2;curveFitting=1;fontFamily=Architects Daughter;fontSource=https%3A%2F%2Ffonts.googleapis.com%2Fcss%3Ffamily%3DArchitects%2BDaughter;labelBackgroundColor=none;fillColor=none;strokeColor=#0000FF;" vertex="1" parent="1">
          <mxGeometry x="380" y="460" width="320" height="90" as="geometry" />
        </mxCell>
        <mxCell id="TQEilbY2hY_B8D0ruo_E-45" value="chart" style="rounded=0;whiteSpace=wrap;html=1;sketch=1;hachureGap=4;jiggle=2;curveFitting=1;fontFamily=Architects Daughter;fontSource=https%3A%2F%2Ffonts.googleapis.com%2Fcss%3Ffamily%3DArchitects%2BDaughter;gradientColor=none;fillColor=none;strokeColor=#858585;" vertex="1" parent="1">
          <mxGeometry x="395" y="467.5" width="145" height="75" as="geometry" />
        </mxCell>
        <mxCell id="TQEilbY2hY_B8D0ruo_E-47" value="chart" style="rounded=0;whiteSpace=wrap;html=1;sketch=1;hachureGap=4;jiggle=2;curveFitting=1;fontFamily=Architects Daughter;fontSource=https%3A%2F%2Ffonts.googleapis.com%2Fcss%3Ffamily%3DArchitects%2BDaughter;gradientColor=none;fillColor=none;strokeColor=#858585;" vertex="1" parent="1">
          <mxGeometry x="545" y="467.5" width="145" height="75" as="geometry" />
        </mxCell>
      </root>
    </mxGraphModel>
  </diagram>
</mxfile>
